<?xml version="1.0" encoding="UTF-8" standalone="no"?>
<svg
   version="1.1"
   id="Layer_1"
   x="0px"
   y="0px"
   width="142px"
   height="142px"
   viewBox="0 0 142 142"
   style="enable-background:new 0 0 142 142;"
   xml:space="preserve"
   sodipodi:docname="LibreTrack_foreground (копия).svg"
   inkscape:version="1.1 (c68e22c387, 2021-05-23)"
   xmlns:inkscape="http://www.inkscape.org/namespaces/inkscape"
   xmlns:sodipodi="http://sodipodi.sourceforge.net/DTD/sodipodi-0.dtd"
   xmlns="http://www.w3.org/2000/svg"
   xmlns:svg="http://www.w3.org/2000/svg"
   xmlns:rdf="http://www.w3.org/1999/02/22-rdf-syntax-ns#"
   xmlns:cc="http://creativecommons.org/ns#"
   xmlns:dc="http://purl.org/dc/elements/1.1/"><sodipodi:namedview
   id="namedview42"
   pagecolor="#ffffff"
   bordercolor="#666666"
   borderopacity="1.0"
   inkscape:pageshadow="2"
   inkscape:pageopacity="0.0"
   inkscape:pagecheckerboard="0"
   showgrid="false"
   inkscape:zoom="2.8284271"
   inkscape:cx="42.603183"
   inkscape:cy="40.65864"
   inkscape:window-width="1920"
   inkscape:window-height="921"
   inkscape:window-x="0"
   inkscape:window-y="0"
   inkscape:window-maximized="1"
   inkscape:current-layer="Layer_1" /><metadata
   id="metadata70"><rdf:RDF><cc:Work
       rdf:about=""><dc:format>image/svg+xml</dc:format><dc:type
         rdf:resource="http://purl.org/dc/dcmitype/StillImage" /><dc:title /></cc:Work></rdf:RDF></metadata><defs
   id="defs68"><linearGradient
     id="linearGradient884"
     gradientUnits="userSpaceOnUse"
     x1="91.6212"
     y1="114.5754"
     x2="91.6212"
     y2="56.786">
		<stop
   offset="0"
   style="stop-color:#b0b0b0;stop-opacity:1"
   id="stop880" />
		<stop
   offset="1"
   style="stop-color:#cccccc;stop-opacity:1"
   id="stop882" />
	</linearGradient></defs>
<style
   type="text/css"
   id="style2">
	.st0{fill:#019BD8;}
	.st1{fill:url(#SVGID_1_);}
	.st2{fill:#FFFFFF;}
	.st3{fill:url(#SVGID_2_);}
	.st4{fill:url(#SVGID_3_);}
	.st5{fill:url(#SVGID_4_);}
	.st6{fill:url(#SVGID_5_);}
	.st7{fill:url(#SVGID_6_);}
	.st8{fill:url(#SVGID_7_);}
</style>
<g
   id="g63">
	<g
   id="g6">
		
	</g>
	<g
   id="g15">
		<linearGradient
   id="SVGID_1_"
   gradientUnits="userSpaceOnUse"
   x1="36.5405"
   y1="36.8935"
   x2="124.8108"
   y2="125.1637">
			<stop
   offset="0"
   style="stop-color:#000000;stop-opacity:0.3"
   id="stop8" />
			<stop
   offset="1"
   style="stop-color:#000000;stop-opacity:0"
   id="stop10" />
		</linearGradient>
		
	</g>
	<g
   id="g19">
		<path
   class="st2"
   d="M45.1,108.4l-2-1.2C43.8,107.6,44.5,108,45.1,108.4z"
   id="path17" />
	</g>
	<linearGradient
   id="SVGID_2_"
   gradientUnits="userSpaceOnUse"
   x1="71"
   y1="65.9253"
   x2="71"
   y2="21.245">
		<stop
   offset="0"
   style="stop-color:#FFFFFF"
   id="stop21" />
		<stop
   offset="1"
   style="stop-color:#FFFFFF"
   id="stop23" />
	</linearGradient>
	<path
   class="st3"
   d="M 91,30.2 85.3,27 c 1.7,0.9 3.6,2 5.7,3.2 z m -40,0 -5.3,3.1 c -2.1,1.2 -4,2.3 -5.7,3.3 L 56.7,27 C 55,27.9 53.1,29 51,30.2 Z m 45.3,3.1 -4.7,-2.7 10.3,6 c -1.6,-1 -3.5,-2.1 -5.6,-3.3 z M 91,30.2 v 0 l 0.6,0.4 z m -4.8,14.6 v 0 C 70.4,35.7 71.6,35.7 55.9,44.8 48,49.3 44.1,51.3 42.3,54.4 l 5.8,3.4 c 1.5,-2.5 4.5,-4.1 10.8,-7.8 12.6,-7.3 11.7,-7.3 24.3,0 6.3,3.6 9.4,5.2 10.8,7.7 l 5.6,-3.2 C 97.7,51.3 94,49.3 86.2,44.8 Z m -7.5,12.9 c -8,-4.6 -7.4,-4.6 -15.3,0 -4,2.3 -6,3.3 -6.9,4.9 l 5.8,3.3 c 0.6,-1 1.7,-1.6 4.1,-3 4.8,-2.8 4.5,-2.8 9.3,0 2.4,1.4 3.6,2.1 4.1,3.1 l 5.7,-3.3 c -1,-1.5 -2.9,-2.7 -6.8,-5 z M 102,36.6 91.7,30.6 91,30.2 v 0 L 90.1,29.7 88.9,29 88.7,28.9 88,28.5 87.4,28.2 85.4,27.1 C 72,19.3 70,19.3 56.7,27 L 40,36.6 c -4.5,2.6 -7.6,4.6 -9.7,6.6 v 0 c -1,0.9 -1.8,1.9 -2.4,3 l 5.9,3.3 C 36.2,45.4 41.2,42.9 51.4,37 71.8,25.2 70.3,25.2 90.7,37 v 0 c 10.2,5.9 15,8.4 17.4,12.5 l 6.07075,-3.272672 C 112.17075,42.827328 108.6,40.4 102,36.6 Z"
   id="path26" />
	<linearGradient
   id="SVGID_3_"
   gradientUnits="userSpaceOnUse"
   x1="48.10379"
   y1="53.37487"
   x2="48.791847"
   y2="112.92738">
	<stop
   offset="0"
   style="stop-color:#f2f2f2;stop-opacity:1"
   id="stop30" />
		<stop
   offset="1"
   style="stop-color:#d9d9d9;stop-opacity:1"
   id="stop28" />
		</linearGradient>
	<path
   class="st4"
   d="m 68.1,100.7 2.8,-1.6 v 6.9 c -14.1,8.1 -14.6,8.9 -25.9,2.4 l -2,-1.2 -2.3,-1.3 v 0 0 l -4.3,-2.5 C 26.4,97.5 25.6,96.2 25.6,84.6 V 61.4 c 0,-7.7 0.3,-12 2.2,-15.3 0.6,-1.1 1.5,-1.9 2.5,-2.9 -0.2,0.3 -2.1,3 3.5,6.3 -2.4,4.1 -2.2,9.6 -2.2,21.4 v 8.7 c 0,14.6 -0.5,13.8 12.2,21 12.7,7.4 11.7,7.4 24.3,0.1 z m -7.4,-13 c -4.8,2.8 -4.5,2.8 -9.3,0 -4.8,-2.8 -4.7,-2.5 -4.7,-8.1 V 71 c 0,-7.3 0,-10.6 1.4,-13.2 l -5.8,-3.4 c -1.8,3.2 -1.7,7.4 -1.7,16.5 v 8.7 c 0,9.2 -0.3,8.7 7.7,13.3 8,4.6 7.4,4.6 15.3,0 l 7.3,-4.2 v -6.9 z m -5,-14.8 c 0,5.2 1.5,6 6,3.5 V 71 c 0,-2.8 0.1,-4.1 0.6,-5.1 l -5.8,-3.3 c -0.9,1.6 -0.8,3.8 -0.8,8.3 z"
   id="path33"
   style="fill:url(#SVGID_3_)" />
	<linearGradient
   id="SVGID_4_"
   gradientUnits="userSpaceOnUse"
   x1="92.866806"
   y1="123.27055"
   x2="93.772652"
   y2="57.340946">
		<stop
   offset="0"
   style="stop-color:#bfbfbf;stop-opacity:1"
   id="stop35" />
		<stop
   offset="1"
   style="stop-color:#d9d9d9;stop-opacity:1"
   id="stop37" />
	</linearGradient>
	<path
   class="st5"
   d="m 96.3,108.7 5.6,-3.3 c -1.6,1 -3.5,2.1 -5.6,3.3 z m 20,-47.3 v 6.5 z m 0,12.7 v 6.5 z M 86.1,97.2 c 15.8,-9.1 15.2,-8 15.2,-26.2 0,-9.1 0.1,-13.4 -1.7,-16.5 L 94,57.7 c 1.5,2.5 1.3,6 1.3,13.3 0,14.6 0.5,13.8 -12.2,21 l -12.2,7.1 c 0,2.33333 0,4.56667 0,6.9 z m 28,-51.1 v 0 c -0.6,-1.1 -1.43372,-1.97374 -2.43372,-2.97374 0.2,0.3 2.03372,3.07374 -3.56628,6.37374 2.43784,-1.440541 2.43784,-1.440541 0,0 2.82635,8.307705 2.20224,15.046696 2.2,21.4 0,23.6 0.8,22.3 -19.7,34 l -19.6,11.4 -1.5,0.9 c -2.8,1.6 -3.3,2.8 -1.4,4.3 0.4,0.3 0.8,0.6 1.4,0.9 0.8,0.4 1.2,0.7 1.5,0.7 0.4,0 0.7,-0.2 1.5,-0.7 l 1.8,-1 c 0.1,0 0.2,-0.1 0.2,-0.1 l 21.8,-12.6 v 0 l 5.6,-3.2 C 115.2,97.8 116.2,96 116.2,80.7 V 61.4 c 0.1,-7.7 -0.2,-12 -2.1,-15.3 z M 86.3,71 c 0,-4.6 0.1,-6.8 -0.8,-8.3 L 79.8,66 c 0.6,1 0.5,2.3 0.5,5.1 0,5.6 0.2,5.3 -4.7,8.1 l -4.7,2.6 v 6.9 l 7.8,-4.5 c 7.9,-4.5 7.6,-4 7.6,-13.2 z"
   id="path40"
   style="fill:url(#SVGID_4_)" />
	<linearGradient
   id="SVGID_5_"
   gradientUnits="userSpaceOnUse"
   x1="41.9144"
   y1="58.9927"
   x2="48.9474"
   y2="51.9597">
		<stop
   offset="0"
   style="stop-color:#DEDEDE"
   id="stop42" />
		<stop
   offset="1"
   style="stop-color:#F0F0F0"
   id="stop44" />
	</linearGradient>
	<path
   class="st6"
   d="m 34.05723,49.081201 c -0.07586,0.113031 -0.172228,0.262088 -0.262158,0.422294 -0.06807,0.121263 -0.151293,0.28359 -0.215824,0.383245 C 32.531918,49.135035 31.368163,48.458798 30.6,47.6 c -0.7,-0.7 -1.079141,-1.49498 -1.2,-2.3 -0.08532,-0.504395 -0.06108,-0.852545 0.03896,-1.252545 0.3,-0.3 0.568492,-0.600763 0.962532,-0.945389 0.259164,-0.235955 0.515395,-0.474838 0.71657,-0.644403 0,0.3 -0.244044,0.635562 -0.403211,0.854559 -0.05974,0.112543 -0.542501,0.800104 -0.279651,1.799753 0.132165,0.609098 0.43984,1.136549 0.812485,1.589285 0.827667,1.005552 1.790268,1.811602 2.809545,2.379941 z m 8.461044,4.974884 c -0.10383,0.160532 -0.109711,0.15493 -0.221585,0.343512 -0.115158,0.194118 -0.165073,0.328061 -0.245746,0.472251 l 5.820728,3.37695 c 0.1,-0.2 0.12228,-0.245639 0.228329,-0.448798 0.121284,-0.18941 0.189417,-0.305289 0.276569,-0.421768 z m 14.255954,8.12739 c -0.1,0.1 -0.200595,0.293877 -0.270629,0.416737 -0.07202,0.126337 -0.180818,0.31256 -0.234971,0.491701 l 5.811618,3.332852 c 0.08851,-0.20856 0.115263,-0.289346 0.213693,-0.483332 0.09756,-0.19228 0.169644,-0.28171 0.250006,-0.39996 z"
   id="path47"
   style="fill:#d9d9d9;fill-opacity:1" />
	<linearGradient
   id="SVGID_6_"
   gradientUnits="userSpaceOnUse"
   x1="82.8364"
   y1="69.2087"
   x2="110.2997"
   y2="41.7454">
		<stop
   offset="0"
   style="stop-color:#BABABA"
   id="stop49" />
		<stop
   offset="1"
   style="stop-color:#F0F0F0"
   id="stop51" />
	</linearGradient>
	<path
   class="st7"
   d="m 112.60531,45.400504 c -0.2,0.8 -0.55883,1.508575 -1.26644,2.257214 -0.71254,0.780743 -2.97836,2.260365 -3.06376,2.367612 -0.0851,-0.258013 -0.12045,-0.329528 -0.16482,-0.460605 -0.0783,-0.142679 -0.15974,-0.286977 -0.23388,-0.431772 0,0 1.44212,-0.933263 2.51783,-1.982826 0.65768,-0.641685 1.13578,-1.360261 1.21107,-1.849623 0.2,-1 -0.20531,-1.700504 -0.30531,-1.800504 -0.2,-0.3 -0.26211,-0.635411 -0.26211,-0.935411 0.2,0.2 0.51093,0.412977 0.70274,0.620845 l 0.68155,0.705244 L 112.6,44.1 l 0.005,5.04e-4 v 0 c 0,0 0.0843,0.795209 0,1.3 z m -13.001192,9.079678 c -0.06254,-0.113291 -0.184784,-0.290261 -0.263869,-0.396517 l -5.567596,3.257283 c 0.08386,0.104608 0.194477,0.284498 0.271726,0.429146 0.06662,0.124748 0.149769,0.287685 0.244525,0.46147 l 5.625419,-3.132281 c -0.09464,-0.232886 -0.169938,-0.365005 -0.310205,-0.619101 z M 85.5,62.7 c -0.117375,-0.182443 -0.06056,-0.09291 -0.289594,-0.393805 l -5.666247,3.28645 c 0.07968,0.114389 0.180462,0.277794 0.255048,0.404166 0.07442,0.126091 0.150332,0.293957 0.21918,0.469665 L 84.3,64 85.725992,63.141223 C 85.606622,62.88024 85.576904,62.823285 85.5,62.7 Z"
   id="path54"
   style="fill:#cccccc;fill-opacity:1" />
	<linearGradient
   id="SVGID_7_"
   gradientUnits="userSpaceOnUse"
   x1="70.9999"
   y1="106.2323"
   x2="70.9999"
   y2="81.4522">
		<stop
   offset="0"
   style="stop-color:#BFBFBF"
   id="stop56" />
		<stop
   offset="1"
   style="stop-color:#E6E6E6"
   id="stop58" />
	</linearGradient>
	<path
   class="st8"
   d="m 71.49678,81.472396 0.0016,6.881294 -0.498138,0.284329 -0.500077,0.288556 0.0066,-6.898758 0.452103,-0.26135 z m -0.503799,17.573115 -0.491471,0.27644 0.0074,6.908879 c 0.287521,-0.17148 0.283736,-0.16906 0.546816,-0.32651 0.206449,-0.11447 0.249288,-0.14671 0.441008,-0.24861 l -0.0021,-6.897947 z"
   id="path61"
   style="fill:#bfbfbf;fill-opacity:1" />
</g>
</svg>
