<?xml version="1.0" encoding="iso-8859-1"?>
<!-- Generator: Adobe Illustrator 25.2.1, SVG Export Plug-In . SVG Version: 6.00 Build 0)  -->
<svg version="1.1" id="Layer_1" xmlns="http://www.w3.org/2000/svg" xmlns:xlink="http://www.w3.org/1999/xlink" x="0px" y="0px"
	 width="141.96px" height="141.96px" viewBox="0 0 141.96 141.96" enable-background="new 0 0 141.96 141.96" xml:space="preserve">
<path fill="#1D1D1B" d="M116.281,61.38c-0.028-7.68-0.291-11.964-2.207-15.282c-1.916-3.318-5.493-5.687-12.128-9.55
	c-0.182-0.106-16.572-9.568-16.637-9.605c-13.324-7.627-15.341-7.627-28.666,0.001c-0.107,0.061-16.527,9.541-16.633,9.603
	c-6.637,3.864-10.215,6.234-12.131,9.552C25.963,49.416,25.7,53.7,25.672,61.38c-0.001,0.188,0,23.136,0,23.234
	c0.043,11.618,0.804,12.938,10.843,18.783c0.213,0.124,8.43,4.868,8.574,4.95c11.32,6.48,11.813,5.666,25.887-2.433
	c0.013-0.008,0.025-0.014,0.038-0.022l15.089-8.682c15.768-9.073,15.178-8.052,15.178-26.244c0-9.083,0.148-13.368-1.67-16.518
	c-1.819-3.15-5.604-5.164-13.47-9.705l-0.013-0.008c-15.744-9.089-14.559-9.089-30.303,0c-7.873,4.545-11.661,6.561-13.481,9.713
	c-1.877,3.25-1.792,7.324-1.672,25.192c0,9.182-0.299,8.663,7.652,13.254c7.951,4.591,7.353,4.591,15.304,0
	c5.287-3.053,9.789-5.651,15-8.66c7.952-4.591,7.652-4.072,7.652-13.254c0-4.591,0.075-6.757-0.844-8.349
	c-0.919-1.592-2.833-2.61-6.809-4.906c-7.951-4.59-7.352-4.59-15.303,0c-3.976,2.295-5.889,3.313-6.808,4.905
	c-0.919,1.592-0.844,3.758-0.844,8.349v1.908c0,5.171,1.522,6.049,6,3.464c-0.039-8.209-0.092-9.399,0.514-10.447
	c0.559-0.968,1.722-1.586,4.138-2.982c4.834-2.791,4.47-2.791,9.305,0c2.417,1.395,3.579,2.014,4.138,2.982
	c0.559,0.968,0.514,2.284,0.514,5.076c0,5.582,0.182,5.266-4.652,8.057c-3.281,1.894-11.464,6.619-15,8.661
	c-4.835,2.792-4.471,2.792-9.306,0c-4.833-2.791-4.651-2.476-4.651-8.058c-0.105-17.101-0.069-19.477,1.341-21.919
	c1.46-2.528,4.498-4.145,10.811-7.79c12.628-7.291,11.677-7.291,24.305,0c6.313,3.645,9.351,5.262,10.811,7.789
	c1.46,2.528,1.341,5.967,1.341,13.258c0,14.581,0.475,13.757-12.152,21.048c-9.14,5.277-9.871,5.699-15,8.661
	c-12.628,7.291-11.677,7.291-24.305,0c-12.627-7.291-12.152-6.467-12.152-21.048v-8.66c0-11.79-0.192-17.352,2.168-21.441
	c2.36-4.088,7.273-6.703,17.483-12.597c20.421-11.791,18.884-11.791,39.305,0l0.017,0.01c10.201,5.89,15.11,8.502,17.468,12.587
	c2.359,4.085,2.167,9.642,2.167,21.423c0,23.594,0.765,22.271-19.685,34.038c-6.37,3.666-11.468,6.599-21.133,12.16
	c-3.403,1.958-3.404,3.295-0.004,5.258c0.788,0.455,1.153,0.683,1.517,0.683c0.364,0,0.729-0.228,1.517-0.683
	c0.118-0.068,29.333-16.934,29.444-16.999c13.28-7.732,14.287-9.475,14.344-24.837C116.282,80.38,116.282,61.583,116.281,61.38z"/>
</svg>
